<svg xmlns="http://www.w3.org/2000/svg" width="780" height="640" viewBox="0 0 780 640" font-family="Segoe UI, Arial, sans-serif"><rect width="780" height="640" fill="#ffffff"/><text x="24" y="34" font-size="18" font-weight="bold" fill="#0f172a">Step 1 - LoadGraph: the input fuzzy graph F</text><text x="24" y="54" font-size="12" fill="#64748b">n = 6 vertices, m = 8 edges, connected;  self-loops dropped: none</text><line x1="26" y1="72" x2="50" y2="72" stroke="#737373" stroke-width="3" stroke-linecap="round"/><text x="56" y="76" font-size="11" fill="#475569">edge, thickness ~ xi</text><g><line x1="44.8" y1="321.5" x2="555.2" y2="475.6" stroke="#737373" stroke-width="1.38" stroke-linecap="round"/><line x1="41.5" y1="306.6" x2="198.5" y2="164.3" stroke="#737373" stroke-width="1.38" stroke-linecap="round"/><line x1="570.0" y1="169.4" x2="570.0" y2="464.6" stroke="#737373" stroke-width="1.65" stroke-linecap="round"/><line x1="738.5" y1="327.4" x2="581.5" y2="469.7" stroke="#737373" stroke-width="1.10" stroke-linecap="round"/><line x1="225.5" y1="153.9" x2="554.5" y2="153.9" stroke="#737373" stroke-width="0.83" stroke-linecap="round"/><line x1="210.0" y1="169.4" x2="210.0" y2="464.6" stroke="#737373" stroke-width="2.75" stroke-linecap="round"/><line x1="581.5" y1="164.3" x2="738.5" y2="306.6" stroke="#737373" stroke-width="1.38" stroke-linecap="round"/><line x1="221.5" y1="469.7" x2="558.5" y2="164.3" stroke="#737373" stroke-width="1.93" stroke-linecap="round"/><rect x="283.6" y="380.5" width="32.8" height="14" rx="2" fill="#ffffff" fill-opacity="0.95"/><text x="300.0" y="391.0" font-size="10" fill="#333333" text-anchor="middle">0.3</text><rect x="103.6" y="217.5" width="32.8" height="14" rx="2" fill="#ffffff" fill-opacity="0.95"/><text x="120.0" y="228.0" font-size="10" fill="#333333" text-anchor="middle">0.3</text><rect x="553.6" y="299.0" width="32.8" height="14" rx="2" fill="#ffffff" fill-opacity="0.95"/><text x="570.0" y="309.5" font-size="10" fill="#333333" text-anchor="middle">0.4</text><rect x="643.6" y="380.5" width="32.8" height="14" rx="2" fill="#ffffff" fill-opacity="0.95"/><text x="660.0" y="391.0" font-size="10" fill="#333333" text-anchor="middle">0.2</text><rect x="373.6" y="135.9" width="32.8" height="14" rx="2" fill="#ffffff" fill-opacity="0.95"/><text x="390.0" y="146.4" font-size="10" fill="#333333" text-anchor="middle">0.1</text><rect x="193.6" y="299.0" width="32.8" height="14" rx="2" fill="#ffffff" fill-opacity="0.95"/><text x="210.0" y="309.5" font-size="10" fill="#333333" text-anchor="middle">0.8</text><rect x="643.6" y="217.5" width="32.8" height="14" rx="2" fill="#ffffff" fill-opacity="0.95"/><text x="660.0" y="228.0" font-size="10" fill="#333333" text-anchor="middle">0.3</text><rect x="373.6" y="299.0" width="32.8" height="14" rx="2" fill="#ffffff" fill-opacity="0.95"/><text x="390.0" y="309.5" font-size="10" fill="#333333" text-anchor="middle">0.5</text></g><g><circle cx="30.0" cy="317.0" r="13.0" fill="#EBEBFF" stroke="#00008C" stroke-width="1.60"/><text x="30.0" y="321.0" font-size="12" fill="#1A1A1A" text-anchor="middle">a</text><circle cx="210.0" cy="153.9" r="13.0" fill="#EBEBFF" stroke="#00008C" stroke-width="1.60"/><text x="210.0" y="157.9" font-size="12" fill="#1A1A1A" text-anchor="middle">b</text><circle cx="210.0" cy="480.1" r="13.0" fill="#EBEBFF" stroke="#00008C" stroke-width="1.60"/><text x="210.0" y="484.1" font-size="12" fill="#1A1A1A" text-anchor="middle">c</text><circle cx="570.0" cy="153.9" r="13.0" fill="#EBEBFF" stroke="#00008C" stroke-width="1.60"/><text x="570.0" y="157.9" font-size="12" fill="#1A1A1A" text-anchor="middle">d</text><circle cx="750.0" cy="317.0" r="13.0" fill="#EBEBFF" stroke="#00008C" stroke-width="1.60"/><text x="750.0" y="321.0" font-size="12" fill="#1A1A1A" text-anchor="middle">e</text><circle cx="570.0" cy="480.1" r="13.0" fill="#EBEBFF" stroke="#00008C" stroke-width="1.60"/><text x="570.0" y="484.1" font-size="12" fill="#1A1A1A" text-anchor="middle">f</text></g><rect x="24" y="582" width="732" height="48" rx="6" fill="#f8fafc" stroke="#cbd5e1"/><text x="36" y="601.0" font-size="12" fill="#334155" font-family="Consolas, monospace">y = a (left), z = e (right): the two endpoints of the local</text><text x="36" y="618.0" font-size="12" fill="#334155" font-family="Consolas, monospace">connectivity problem; path length is counted in edges (hops).</text></svg>