<svg xmlns="http://www.w3.org/2000/svg" width="780" height="640" viewBox="0 0 780 640" font-family="Segoe UI, Arial, sans-serif"><rect width="780" height="640" fill="#ffffff"/><text x="24" y="34" font-size="18" font-weight="bold" fill="#0f172a">Step 6 - Finalize: the extreme cut deleted and gamma_yz</text><text x="24" y="54" font-size="12" fill="#64748b">route 1 shown: delete S_min from F' and measure the new y-z distance by BFS</text><line x1="26" y1="72" x2="50" y2="72" stroke="#2E7D4F" stroke-width="3" stroke-linecap="round"/><text x="56" y="76" font-size="11" fill="#475569">reachable from y</text><line x1="185" y1="72" x2="209" y2="72" stroke="#6B5FA8" stroke-width="3" stroke-linecap="round"/><text x="215" y="76" font-size="11" fill="#475569">on a surviving y-&gt;z walk</text><g></g><g><path d="M 716.3 291.3 Q 392.0 286.6 77.7 282.2" fill="none" stroke="#737373" stroke-width="2.89" stroke-linecap="round"/><polygon points="67.7,282.0 76.8,277.9 76.7,286.3" fill="#737373"/><path d="M 612.7 209.7 Q 664.2 245.1 707.5 274.8" fill="none" stroke="#737373" stroke-width="2.63" stroke-linecap="round"/><polygon points="715.7,280.5 705.9,278.8 710.7,271.9" fill="#737373"/><path d="M 612.7 373.8 Q 664.2 338.2 707.5 308.3" fill="none" stroke="#737373" stroke-width="2.63" stroke-linecap="round"/><polygon points="715.7,302.6 710.7,311.2 705.9,304.3" fill="#737373"/><path d="M 318.1 177.5 Q 396.2 217.1 447.2 270.2" fill="none" stroke="#737373" stroke-width="1.85" stroke-linecap="round"/><polygon points="454.1,277.4 444.8,273.8 450.9,268.0" fill="#737373"/><path d="M 319.1 307.6 Q 384.2 287.9 438.1 290.2" fill="none" stroke="#737373" stroke-width="1.85" stroke-linecap="round"/><polygon points="448.1,290.7 438.9,294.5 439.3,286.1" fill="#737373"/><path d="M 313.3 440.6 Q 372.2 358.5 443.4 308.5" fill="none" stroke="#737373" stroke-width="1.85" stroke-linecap="round"/><polygon points="451.6,302.7 446.7,311.3 441.8,304.4" fill="#737373"/><path d="M 453.8 284.5 Q 375.6 244.9 324.7 191.8" fill="none" stroke="#737373" stroke-width="1.85" stroke-linecap="round"/><polygon points="317.8,184.6 327.0,188.2 321.0,194.0" fill="#737373"/><path d="M 452.7 296.0 Q 387.7 315.7 333.8 313.4" fill="none" stroke="#737373" stroke-width="1.85" stroke-linecap="round"/><polygon points="323.8,313.0 332.9,309.1 332.6,317.5" fill="#737373"/><path d="M 458.5 304.1 Q 399.7 386.2 328.4 436.2" fill="none" stroke="#737373" stroke-width="1.85" stroke-linecap="round"/><polygon points="320.2,442.0 325.2,433.4 330.0,440.2" fill="#737373"/><path d="M 50.0 297.1 Q 59.7 380.7 68.2 454.2" fill="none" stroke="#737373" stroke-width="1.59" stroke-linecap="round"/><polygon points="69.3,464.2 64.1,455.7 72.5,454.8" fill="#737373"/><path d="M 85.6 490.1 Q 124.0 507.9 153.3 521.6" fill="none" stroke="#737373" stroke-width="1.59" stroke-linecap="round"/><polygon points="162.4,525.8 152.4,525.8 156.0,518.2" fill="#737373"/><path d="M 185.1 519.3 Q 241.5 354.2 294.7 198.4" fill="none" stroke="#737373" stroke-width="1.59" stroke-linecap="round"/><polygon points="298.0,189.0 299.0,198.9 291.1,196.1" fill="#737373"/><path d="M 187.6 520.5 Q 241.2 424.8 289.9 337.9" fill="none" stroke="#737373" stroke-width="1.59" stroke-linecap="round"/><polygon points="294.8,329.1 294.0,339.0 286.7,334.9" fill="#737373"/><path d="M 464.5 306.7 Q 444.6 405.6 426.7 494.8" fill="none" stroke="#737373" stroke-width="1.59" stroke-linecap="round"/><polygon points="424.8,504.6 422.4,494.9 430.7,496.6" fill="#737373"/><path d="M 480.4 282.7 Q 532.1 247.3 575.6 217.6" fill="none" stroke="#737373" stroke-width="1.07" stroke-linecap="round"/><polygon points="583.9,211.9 578.8,220.5 574.1,213.5" fill="#737373"/><path d="M 480.3 300.3 Q 532.1 335.9 575.6 365.9" fill="none" stroke="#737373" stroke-width="1.07" stroke-linecap="round"/><polygon points="583.9,371.6 574.1,369.9 578.9,363.0" fill="#737373"/><path d="M 294.1 158.9 Q 274.7 136.8 261.9 122.2" fill="none" stroke="#737373" stroke-width="1.07" stroke-linecap="round"/><polygon points="255.3,114.7 264.4,118.7 258.1,124.2" fill="#737373"/><rect x="373.1" y="301.9" width="32.8" height="14" rx="2" fill="#ffffff" fill-opacity="0.95"/><text x="389.5" y="312.4" font-size="10" fill="#333333" text-anchor="middle">0.9</text><rect x="650.3" y="266.6" width="32.8" height="14" rx="2" fill="#ffffff" fill-opacity="0.95"/><text x="666.7" y="277.1" font-size="10" fill="#333333" text-anchor="middle">0.8</text><rect x="636.7" y="312.2" width="32.8" height="14" rx="2" fill="#ffffff" fill-opacity="0.95"/><text x="653.1" y="322.7" font-size="10" fill="#333333" text-anchor="middle">0.8</text><rect x="363.3" y="233.0" width="32.8" height="14" rx="2" fill="#ffffff" fill-opacity="0.95"/><text x="379.7" y="243.5" font-size="10" fill="#333333" text-anchor="middle">0.5</text><rect x="362.8" y="306.7" width="32.8" height="14" rx="2" fill="#ffffff" fill-opacity="0.95"/><text x="379.1" y="317.2" font-size="10" fill="#333333" text-anchor="middle">0.5</text><rect x="362.8" y="326.3" width="32.8" height="14" rx="2" fill="#ffffff" fill-opacity="0.95"/><text x="379.1" y="336.8" font-size="10" fill="#333333" text-anchor="middle">0.5</text><rect x="362.2" y="259.5" width="32.8" height="14" rx="2" fill="#ffffff" fill-opacity="0.95"/><text x="378.6" y="270.0" font-size="10" fill="#333333" text-anchor="middle">0.5</text><rect x="365.5" y="328.4" width="32.8" height="14" rx="2" fill="#ffffff" fill-opacity="0.95"/><text x="381.9" y="338.9" font-size="10" fill="#333333" text-anchor="middle">0.5</text><rect x="370.3" y="349.6" width="32.8" height="14" rx="2" fill="#ffffff" fill-opacity="0.95"/><text x="386.7" y="360.1" font-size="10" fill="#333333" text-anchor="middle">0.5</text><rect x="65.5" y="372.9" width="32.8" height="14" rx="2" fill="#ffffff" fill-opacity="0.95"/><text x="81.9" y="383.4" font-size="10" fill="#333333" text-anchor="middle">0.4</text><rect x="118.6" y="482.0" width="32.8" height="14" rx="2" fill="#ffffff" fill-opacity="0.95"/><text x="135.0" y="492.5" font-size="10" fill="#333333" text-anchor="middle">0.4</text><rect x="246.7" y="352.3" width="32.8" height="14" rx="2" fill="#ffffff" fill-opacity="0.95"/><text x="263.1" y="362.8" font-size="10" fill="#333333" text-anchor="middle">0.4</text><rect x="245.0" y="426.6" width="32.8" height="14" rx="2" fill="#ffffff" fill-opacity="0.95"/><text x="261.4" y="437.1" font-size="10" fill="#333333" text-anchor="middle">0.4</text><rect x="401.8" y="419.6" width="32.8" height="14" rx="2" fill="#ffffff" fill-opacity="0.95"/><text x="418.2" y="430.1" font-size="10" fill="#333333" text-anchor="middle">0.4</text><rect x="525.0" y="207.5" width="32.8" height="14" rx="2" fill="#ffffff" fill-opacity="0.95"/><text x="541.4" y="218.0" font-size="10" fill="#333333" text-anchor="middle">0.2</text><rect x="485.4" y="334.4" width="32.8" height="14" rx="2" fill="#ffffff" fill-opacity="0.95"/><text x="501.8" y="344.9" font-size="10" fill="#333333" text-anchor="middle">0.2</text><rect x="249.9" y="153.2" width="32.8" height="14" rx="2" fill="#ffffff" fill-opacity="0.95"/><text x="266.3" y="163.7" font-size="10" fill="#333333" text-anchor="middle">0.2</text></g><g><circle cx="304.3" cy="170.5" r="13.0" fill="#EDE9FE" stroke="#6B5FA8" stroke-width="1.70"/><text x="304.3" y="174.5" font-size="12" fill="#3D3466" text-anchor="middle">a1</text><circle cx="304.3" cy="312.1" r="13.0" fill="#EDE9FE" stroke="#6B5FA8" stroke-width="1.70"/><text x="304.3" y="316.1" font-size="12" fill="#3D3466" text-anchor="middle">a2</text><circle cx="304.3" cy="453.2" r="13.0" fill="#EDE9FE" stroke="#6B5FA8" stroke-width="1.70"/><text x="304.3" y="457.2" font-size="12" fill="#3D3466" text-anchor="middle">a3</text><circle cx="599.9" cy="200.9" r="13.0" fill="#EDE9FE" stroke="#6B5FA8" stroke-width="1.70"/><text x="599.9" y="204.9" font-size="12" fill="#3D3466" text-anchor="middle">c1</text><circle cx="599.9" cy="382.6" r="13.0" fill="#EDE9FE" stroke="#6B5FA8" stroke-width="1.70"/><text x="599.9" y="386.6" font-size="12" fill="#3D3466" text-anchor="middle">c2</text><circle cx="467.6" cy="291.5" r="13.0" fill="#EDE9FE" stroke="#6B5FA8" stroke-width="1.70"/><text x="467.6" y="295.5" font-size="12" fill="#3D3466" text-anchor="middle">g</text><circle cx="71.6" cy="483.5" r="13.0" fill="#EDE9FE" stroke="#6B5FA8" stroke-width="1.70"/><text x="71.6" y="487.5" font-size="12" fill="#3D3466" text-anchor="middle">h1</text><circle cx="180.1" cy="534.0" r="13.0" fill="#EDE9FE" stroke="#6B5FA8" stroke-width="1.70"/><text x="180.1" y="538.0" font-size="12" fill="#3D3466" text-anchor="middle">h2</text><circle cx="242.4" cy="100.0" r="13.0" fill="#E4F1E6" stroke="#2E7D4F" stroke-width="1.70"/><text x="242.4" y="104.0" font-size="12" fill="#1B4A30" text-anchor="middle">p</text><circle cx="420.9" cy="523.7" r="13.0" fill="#E4F1E6" stroke="#2E7D4F" stroke-width="1.70"/><text x="420.9" y="527.7" font-size="12" fill="#1B4A30" text-anchor="middle">q</text><circle cx="156.7" cy="140.1" r="13.0" fill="#EDEDED" stroke="#8A8A8A" stroke-width="1.40"/><text x="156.7" y="144.1" font-size="12" fill="#444444" text-anchor="middle">r</text><circle cx="48.2" cy="281.7" r="13.0" fill="#EDE9FE" stroke="#6B5FA8" stroke-width="1.70"/><text x="48.2" y="285.7" font-size="12" fill="#3D3466" text-anchor="middle">y</text><circle cx="731.8" cy="291.5" r="13.0" fill="#EDE9FE" stroke="#6B5FA8" stroke-width="1.70"/><text x="731.8" y="295.5" font-size="12" fill="#3D3466" text-anchor="middle">z</text></g><rect x="24" y="548" width="732" height="82" rx="6" fill="#f8fafc" stroke="#cbd5e1"/><text x="36" y="567.0" font-size="12" fill="#334155" font-family="Consolas, monospace">delete S_min = {x} -&gt; d = 6    D1 = +inf</text><text x="36" y="584.0" font-size="12" fill="#334155" font-family="Consolas, monospace">D2 (length-cap bisection) = +inf      D = max(D1, D2) = +inf</text><text x="36" y="601.0" font-size="12" fill="#334155" font-family="Consolas, monospace">FATAL via route 2: a middle member of the lightest family is fatal -&gt; eta = 1</text><text x="36" y="618.0" font-size="12" fill="#334155" font-family="Consolas, monospace">gamma_yz = (t_yz, 1 - d/D) = (0.2, 1)</text></svg>