<svg xmlns="http://www.w3.org/2000/svg" width="780" height="640" viewBox="0 0 780 640" font-family="Segoe UI, Arial, sans-serif"><rect width="780" height="640" fill="#ffffff"/><text x="24" y="34" font-size="18" font-weight="bold" fill="#0f172a">Step 5 - OneMinCut: t_yz from ONE max-flow</text><text x="24" y="54" font-size="12" fill="#64748b">split network with capacities M(v);  source y_out, sink z_in  (no edge cut is ever enumerated)</text><line x1="26" y1="72" x2="50" y2="72" stroke="#737373" stroke-width="3" stroke-linecap="round"/><text x="56" y="76" font-size="11" fill="#475569">union edge</text><line x1="146" y1="72" x2="170" y2="72" stroke="#B20000" stroke-width="3" stroke-linecap="round"/><text x="176" y="76" font-size="11" fill="#475569">minimum cut</text><line x1="272" y1="72" x2="296" y2="72" stroke="#C0392B" stroke-width="3" stroke-linecap="round"/><text x="302" y="76" font-size="11" fill="#475569">S_min (source side)</text><g><line x1="611.2" y1="233.5" x2="720.8" y2="300.5" stroke="#737373" stroke-width="2.75" stroke-linecap="round"/><line x1="611.2" y1="384.0" x2="720.8" y2="316.6" stroke="#737373" stroke-width="2.75" stroke-linecap="round"/><line x1="296.3" y1="215.7" x2="164.0" y2="284.9" stroke="#B20000" stroke-width="3.07" stroke-linecap="round"/><line x1="297.9" y1="407.5" x2="162.5" y2="301.7" stroke="#B20000" stroke-width="3.07" stroke-linecap="round"/><line x1="584.8" y1="233.5" x2="475.2" y2="300.5" stroke="#737373" stroke-width="2.20" stroke-linecap="round"/><line x1="584.8" y1="384.0" x2="475.2" y2="316.6" stroke="#737373" stroke-width="2.20" stroke-linecap="round"/><line x1="323.0" y1="217.0" x2="449.0" y2="300.0" stroke="#737373" stroke-width="1.93" stroke-linecap="round"/><line x1="322.7" y1="408.0" x2="449.4" y2="317.5" stroke="#737373" stroke-width="1.93" stroke-linecap="round"/><line x1="134.9" y1="294.5" x2="61.3" y2="306.1" stroke="#B20000" stroke-width="2.25" stroke-linecap="round"/><rect x="638.2" y="278.8" width="32.8" height="14" rx="2" fill="#ffffff" fill-opacity="0.95"/><text x="654.6" y="289.3" font-size="10" fill="#333333" text-anchor="middle">0.8</text><rect x="631.4" y="329.1" width="32.8" height="14" rx="2" fill="#ffffff" fill-opacity="0.95"/><text x="647.8" y="339.6" font-size="10" fill="#333333" text-anchor="middle">0.8</text><rect x="231.8" y="258.7" width="32.8" height="14" rx="2" fill="#ffffff" fill-opacity="0.95"/><text x="248.2" y="269.2" font-size="10" fill="#333333" text-anchor="middle">0.7</text><rect x="215.3" y="320.6" width="32.8" height="14" rx="2" fill="#ffffff" fill-opacity="0.95"/><text x="231.7" y="331.1" font-size="10" fill="#333333" text-anchor="middle">0.7</text><rect x="492.2" y="247.5" width="32.8" height="14" rx="2" fill="#ffffff" fill-opacity="0.95"/><text x="508.6" y="258.0" font-size="10" fill="#333333" text-anchor="middle">0.6</text><rect x="498.5" y="360.3" width="32.8" height="14" rx="2" fill="#ffffff" fill-opacity="0.95"/><text x="514.9" y="370.8" font-size="10" fill="#333333" text-anchor="middle">0.6</text><rect x="357.7" y="269.8" width="32.8" height="14" rx="2" fill="#ffffff" fill-opacity="0.95"/><text x="374.1" y="280.3" font-size="10" fill="#333333" text-anchor="middle">0.5</text><rect x="345.5" y="346.0" width="32.8" height="14" rx="2" fill="#ffffff" fill-opacity="0.95"/><text x="361.9" y="356.5" font-size="10" fill="#333333" text-anchor="middle">0.5</text><rect x="79.9" y="315.8" width="32.8" height="14" rx="2" fill="#ffffff" fill-opacity="0.95"/><text x="96.3" y="326.3" font-size="10" fill="#333333" text-anchor="middle">0.4</text></g><g><circle cx="310.1" cy="208.5" r="13.0" fill="#EBEBFF" stroke="#00008C" stroke-width="1.60"/><text x="310.1" y="212.5" font-size="12" fill="#1A1A1A" text-anchor="middle">a1</text><circle cx="310.1" cy="417.0" r="13.0" fill="#EBEBFF" stroke="#00008C" stroke-width="1.60"/><text x="310.1" y="421.0" font-size="12" fill="#1A1A1A" text-anchor="middle">a2</text><circle cx="598.0" cy="225.4" r="13.0" fill="#EBEBFF" stroke="#00008C" stroke-width="1.60"/><text x="598.0" y="229.4" font-size="12" fill="#1A1A1A" text-anchor="middle">c1</text><circle cx="598.0" cy="392.2" r="13.0" fill="#EBEBFF" stroke="#00008C" stroke-width="1.60"/><text x="598.0" y="396.2" font-size="12" fill="#1A1A1A" text-anchor="middle">c2</text><circle cx="462.0" cy="308.5" r="13.0" fill="#EBEBFF" stroke="#00008C" stroke-width="1.60"/><text x="462.0" y="312.5" font-size="12" fill="#1A1A1A" text-anchor="middle">g</text><circle cx="150.2" cy="292.1" r="13.0" fill="#FBE4E4" stroke="#C0392B" stroke-width="1.80"/><text x="150.2" y="296.1" font-size="12" fill="#7B1A1A" text-anchor="middle">x</text><circle cx="46.0" cy="308.5" r="13.0" fill="#EBEBFF" stroke="#00008C" stroke-width="1.60"/><text x="46.0" y="312.5" font-size="12" fill="#1A1A1A" text-anchor="middle">y</text><circle cx="734.0" cy="308.5" r="13.0" fill="#EBEBFF" stroke="#00008C" stroke-width="1.60"/><text x="734.0" y="312.5" font-size="12" fill="#1A1A1A" text-anchor="middle">z</text></g><rect x="24" y="565" width="732" height="65" rx="6" fill="#f8fafc" stroke="#cbd5e1"/><text x="36" y="584.0" font-size="12" fill="#334155" font-family="Consolas, monospace">t_yz = 0.4</text><text x="36" y="601.0" font-size="12" fill="#334155" font-family="Consolas, monospace">S_min (source side) = {x}</text><text x="36" y="618.0" font-size="12" fill="#334155" font-family="Consolas, monospace">S_max (sink side)   = {g}</text></svg>