<svg xmlns="http://www.w3.org/2000/svg" width="780" height="640" viewBox="0 0 780 640" font-family="Segoe UI, Arial, sans-serif"><rect width="780" height="640" fill="#ffffff"/><text x="24" y="34" font-size="18" font-weight="bold" fill="#0f172a">Step 2 - ClassifyArcs: strong vs non-strong arcs</text><text x="24" y="54" font-size="12" fill="#64748b">strong arcs: xi(a) = conn_F(a)  (dark blue)   |   non-strong arcs: xi(a) &lt; conn_F(a)  (grey dashed)</text><line x1="26" y1="72" x2="50" y2="72" stroke="#33566E" stroke-width="3" stroke-linecap="round"/><text x="56" y="76" font-size="11" fill="#475569">strong</text><line x1="119" y1="72" x2="143" y2="72" stroke="#737373" stroke-width="3" stroke-dasharray="5 3" stroke-linecap="round"/><text x="149" y="76" font-size="11" fill="#475569">non-strong</text><g><path d="M 114.0 204.3 Q 422.4 256.7 720.9 307.4" fill="none" stroke="#33566E" stroke-width="2.50" stroke-linecap="round"/><polygon points="730.8,309.1 721.2,311.8 722.6,303.5" fill="#33566E"/><path d="M 735.6 319.0 Q 445.4 381.9 165.0 442.6" fill="none" stroke="#33566E" stroke-width="2.50" stroke-linecap="round"/><polygon points="155.2,444.7 163.1,438.7 164.9,446.9" fill="#33566E"/><path d="M 740.4 324.5 Q 698.5 377.4 662.9 422.4" fill="none" stroke="#33566E" stroke-width="2.50" stroke-linecap="round"/><polygon points="656.7,430.3 659.0,420.6 665.5,425.8" fill="#33566E"/><path d="M 149.9 438.9 Q 440.0 376.1 720.4 315.3" fill="none" stroke="#33566E" stroke-width="2.50" stroke-linecap="round"/><polygon points="730.2,313.2 722.3,319.2 720.5,311.0" fill="#33566E"/><path d="M 138.8 430.0 Q 203.2 289.8 263.4 158.7" fill="none" stroke="#33566E" stroke-width="2.50" stroke-linecap="round"/><polygon points="267.5,149.6 267.6,159.5 260.0,156.0" fill="#33566E"/><path d="M 275.4 148.8 Q 211.0 289.0 150.8 420.2" fill="none" stroke="#33566E" stroke-width="2.50" stroke-linecap="round"/><polygon points="146.7,429.2 146.6,419.3 154.2,422.8" fill="#33566E"/><path d="M 286.5 147.2 Q 337.1 314.1 384.7 471.5" fill="none" stroke="#33566E" stroke-width="2.50" stroke-linecap="round"/><polygon points="387.6,481.1 381.0,473.7 389.0,471.2" fill="#33566E"/><path d="M 382.3 486.8 Q 331.7 319.9 284.0 162.5" fill="none" stroke="#33566E" stroke-width="2.50" stroke-linecap="round"/><polygon points="281.2,152.9 287.8,160.3 279.7,162.8" fill="#33566E"/><path d="M 515.7 138.8 Q 589.4 166.8 653.7 191.2" fill="none" stroke="#33566E" stroke-width="2.50" stroke-linecap="round"/><polygon points="663.0,194.8 653.1,195.5 656.1,187.7" fill="#33566E"/><path d="M 496.8 148.1 Q 446.2 315.1 398.5 472.5" fill="none" stroke="#33566E" stroke-width="2.50" stroke-linecap="round"/><polygon points="395.7,482.0 394.2,472.2 402.3,474.6" fill="#33566E"/><path d="M 38.2 299.2 Q 63.3 258.7 83.2 226.8" fill="none" stroke="#737373" stroke-width="0.91" stroke-dasharray="5 3" stroke-linecap="round"/><polygon points="88.5,218.3 87.3,228.1 80.1,223.7" fill="#737373"/><path d="M 45.1 315.7 Q 335.3 378.5 615.7 439.3" fill="none" stroke="#33566E" stroke-width="2.50" stroke-linecap="round"/><polygon points="625.5,441.4 615.8,443.6 617.6,435.4" fill="#33566E"/><path d="M 45.3 309.8 Q 353.7 257.4 652.2 206.7" fill="none" stroke="#33566E" stroke-width="2.50" stroke-linecap="round"/><polygon points="662.0,205.0 653.9,210.6 652.4,202.3" fill="#33566E"/><path d="M 44.5 306.9 Q 263.8 223.6 473.7 143.8" fill="none" stroke="#33566E" stroke-width="2.50" stroke-linecap="round"/><polygon points="483.0,140.2 476.1,147.4 473.1,139.5" fill="#33566E"/><path d="M 630.4 439.2 Q 373.5 324.4 125.7 213.7" fill="none" stroke="#33566E" stroke-width="2.50" stroke-linecap="round"/><polygon points="116.6,209.7 126.5,209.5 123.1,217.2" fill="#33566E"/><path d="M 678.9 217.0 Q 663.2 321.6 648.9 416.4" fill="none" stroke="#33566E" stroke-width="2.50" stroke-linecap="round"/><polygon points="647.5,426.3 644.6,416.7 653.0,418.0" fill="#33566E"/><path d="M 689.4 214.9 Q 714.6 255.4 734.4 287.3" fill="none" stroke="#737373" stroke-width="0.69" stroke-dasharray="5 3" stroke-linecap="round"/><polygon points="739.7,295.8 731.4,290.4 738.5,286.0" fill="#737373"/><path d="M 667.1 208.0 Q 410.2 322.8 162.4 433.5" fill="none" stroke="#33566E" stroke-width="2.50" stroke-linecap="round"/><polygon points="153.2,437.6 159.7,430.1 163.2,437.8" fill="#33566E"/><path d="M 666.0 199.1 Q 482.0 167.8 307.8 138.2" fill="none" stroke="#737373" stroke-width="0.91" stroke-dasharray="5 3" stroke-linecap="round"/><polygon points="298.0,136.6 307.6,133.9 306.1,142.2" fill="#737373"/><path d="M 670.4 212.8 Q 537.0 349.8 410.6 479.6" fill="none" stroke="#737373" stroke-width="0.91" stroke-dasharray="5 3" stroke-linecap="round"/><polygon points="403.6,486.7 406.9,477.4 412.9,483.2" fill="#737373"/><rect x="408.0" y="239.0" width="32.8" height="14" rx="2" fill="#ffffff" fill-opacity="0.95"/><text x="424.4" y="249.5" font-size="10" fill="#333333" text-anchor="middle">0.6</text><rect x="423.0" y="361.0" width="39.4" height="14" rx="2" fill="#ffffff" fill-opacity="0.95"/><text x="442.7" y="371.5" font-size="10" fill="#333333" text-anchor="middle">0.25</text><rect x="677.6" y="361.0" width="39.4" height="14" rx="2" fill="#ffffff" fill-opacity="0.95"/><text x="697.3" y="371.5" font-size="10" fill="#333333" text-anchor="middle">0.25</text><rect x="423.0" y="361.0" width="39.4" height="14" rx="2" fill="#ffffff" fill-opacity="0.95"/><text x="442.7" y="371.5" font-size="10" fill="#333333" text-anchor="middle">0.25</text><rect x="190.7" y="271.4" width="32.8" height="14" rx="2" fill="#ffffff" fill-opacity="0.95"/><text x="207.1" y="281.9" font-size="10" fill="#333333" text-anchor="middle">0.8</text><rect x="190.7" y="271.4" width="32.8" height="14" rx="2" fill="#ffffff" fill-opacity="0.95"/><text x="207.1" y="281.9" font-size="10" fill="#333333" text-anchor="middle">0.8</text><rect x="318.0" y="299.0" width="32.8" height="14" rx="2" fill="#ffffff" fill-opacity="0.95"/><text x="334.4" y="309.5" font-size="10" fill="#333333" text-anchor="middle">0.7</text><rect x="318.0" y="299.0" width="32.8" height="14" rx="2" fill="#ffffff" fill-opacity="0.95"/><text x="334.4" y="309.5" font-size="10" fill="#333333" text-anchor="middle">0.7</text><rect x="574.8" y="149.5" width="32.8" height="14" rx="2" fill="#ffffff" fill-opacity="0.95"/><text x="591.2" y="160.0" font-size="10" fill="#333333" text-anchor="middle">0.1</text><rect x="429.2" y="299.0" width="32.8" height="14" rx="2" fill="#ffffff" fill-opacity="0.95"/><text x="445.6" y="309.5" font-size="10" fill="#333333" text-anchor="middle">0.8</text><rect x="48.0" y="239.0" width="32.8" height="14" rx="2" fill="#ffffff" fill-opacity="0.95"/><text x="64.4" y="249.5" font-size="10" fill="#333333" text-anchor="middle">0.2</text><rect x="320.9" y="361.0" width="32.8" height="14" rx="2" fill="#ffffff" fill-opacity="0.95"/><text x="337.3" y="371.5" font-size="10" fill="#333333" text-anchor="middle">0.6</text><rect x="339.2" y="239.0" width="32.8" height="14" rx="2" fill="#ffffff" fill-opacity="0.95"/><text x="355.6" y="249.5" font-size="10" fill="#333333" text-anchor="middle">0.4</text><rect x="249.2" y="204.8" width="32.8" height="14" rx="2" fill="#ffffff" fill-opacity="0.95"/><text x="265.6" y="215.3" font-size="10" fill="#333333" text-anchor="middle">0.3</text><rect x="352.0" y="305.6" width="39.4" height="14" rx="2" fill="#ffffff" fill-opacity="0.95"/><text x="371.7" y="316.1" font-size="10" fill="#333333" text-anchor="middle">0.25</text><rect x="646.5" y="305.6" width="32.8" height="14" rx="2" fill="#ffffff" fill-opacity="0.95"/><text x="662.9" y="316.1" font-size="10" fill="#333333" text-anchor="middle">0.4</text><rect x="699.2" y="239.0" width="32.8" height="14" rx="2" fill="#ffffff" fill-opacity="0.95"/><text x="715.6" y="249.5" font-size="10" fill="#333333" text-anchor="middle">0.1</text><rect x="388.6" y="305.6" width="39.4" height="14" rx="2" fill="#ffffff" fill-opacity="0.95"/><text x="408.3" y="316.1" font-size="10" fill="#333333" text-anchor="middle">0.25</text><rect x="463.6" y="149.5" width="32.8" height="14" rx="2" fill="#ffffff" fill-opacity="0.95"/><text x="480.0" y="160.0" font-size="10" fill="#333333" text-anchor="middle">0.2</text><rect x="519.2" y="333.2" width="32.8" height="14" rx="2" fill="#ffffff" fill-opacity="0.95"/><text x="535.6" y="343.7" font-size="10" fill="#333333" text-anchor="middle">0.2</text></g><g><circle cx="98.8" cy="201.7" r="13.0" fill="#EBEBFF" stroke="#00008C" stroke-width="1.60"/><text x="98.8" y="205.7" font-size="12" fill="#1A1A1A" text-anchor="middle">a</text><circle cx="750.0" cy="312.4" r="13.0" fill="#EBEBFF" stroke="#00008C" stroke-width="1.60"/><text x="750.0" y="316.4" font-size="12" fill="#1A1A1A" text-anchor="middle">b</text><circle cx="135.4" cy="445.5" r="13.0" fill="#EBEBFF" stroke="#00008C" stroke-width="1.60"/><text x="135.4" y="449.5" font-size="12" fill="#1A1A1A" text-anchor="middle">c</text><circle cx="278.8" cy="133.3" r="13.0" fill="#EBEBFF" stroke="#00008C" stroke-width="1.60"/><text x="278.8" y="137.3" font-size="12" fill="#1A1A1A" text-anchor="middle">d</text><circle cx="390.0" cy="500.7" r="13.0" fill="#EBEBFF" stroke="#00008C" stroke-width="1.60"/><text x="390.0" y="504.7" font-size="12" fill="#1A1A1A" text-anchor="middle">e</text><circle cx="501.2" cy="133.3" r="13.0" fill="#EBEBFF" stroke="#00008C" stroke-width="1.60"/><text x="501.2" y="137.3" font-size="12" fill="#1A1A1A" text-anchor="middle">f</text><circle cx="30.0" cy="312.4" r="13.0" fill="#EBEBFF" stroke="#00008C" stroke-width="1.60"/><text x="30.0" y="316.4" font-size="12" fill="#1A1A1A" text-anchor="middle">g</text><circle cx="644.6" cy="445.5" r="13.0" fill="#EBEBFF" stroke="#00008C" stroke-width="1.60"/><text x="644.6" y="449.5" font-size="12" fill="#1A1A1A" text-anchor="middle">x</text><circle cx="681.2" cy="201.7" r="13.0" fill="#EBEBFF" stroke="#00008C" stroke-width="1.60"/><text x="681.2" y="205.7" font-size="12" fill="#1A1A1A" text-anchor="middle">y</text></g><rect x="24" y="582" width="732" height="48" rx="6" fill="#f8fafc" stroke="#cbd5e1"/><text x="36" y="601.0" font-size="12" fill="#334155" font-family="Consolas, monospace">strong arcs: 16   non-strong arcs: 4</text><text x="36" y="618.0" font-size="12" fill="#334155" font-family="Consolas, monospace">special case not triggered: no strong forward arc g-&gt;b.</text></svg>